<?xml version="1.0" standalone="no"?>
<!DOCTYPE svg PUBLIC "-//W3C//DTD SVG 20010904//EN"
 "http://www.w3.org/TR/2001/REC-SVG-20010904/DTD/svg10.dtd">
<svg version="1.0" xmlns="http://www.w3.org/2000/svg"
 width="360.000000pt" height="360.000000pt" viewBox="0 0 360.000000 360.000000"
 preserveAspectRatio="xMidYMid meet">

<g transform="translate(0.000000,360.000000) scale(0.100000,-0.100000)"
fill="#000000" stroke="none">
<path d="M0 1800 l0 -1800 1800 0 1800 0 0 1800 0 1800 -1800 0 -1800 0 0
-1800z m1626 770 c195 -49 401 -202 487 -362 15 -28 15 -29 1 -8 -45 65 -192
197 -259 232 -122 64 -203 83 -340 82 -137 0 -210 -17 -321 -71 -184 -89 -328
-268 -380 -473 -23 -86 -23 -254 0 -340 52 -205 196 -384 380 -473 111 -54
184 -71 321 -71 137 -1 218 18 340 82 67 35 214 167 259 232 14 21 14 20 -1
-8 -31 -59 -106 -144 -178 -205 -261 -219 -661 -239 -942 -46 -157 108 -275
274 -325 457 -30 109 -30 295 0 404 76 279 294 494 572 567 105 28 279 28 386
1z m98 -140 c129 -33 256 -111 344 -211 33 -38 92 -128 92 -141 0 -4 -29 -8
-64 -8 l-64 0 -32 50 c-17 27 -60 76 -95 108 -236 221 -611 213 -844 -18 -36
-36 -61 -58 -55 -50 98 138 227 228 386 270 99 26 232 26 332 0z m-20 -452
c23 -22 266 -361 266 -372 0 -3 -103 -6 -230 -6 l-230 0 36 50 36 50 85 0 85
0 -38 53 c-73 102 -60 105 -159 -32 l-87 -121 -74 0 c-41 0 -74 2 -74 5 0 12
256 358 278 375 33 26 75 25 106 -2z m284 -84 c42 -59 84 -115 92 -125 14 -18
21 -11 105 106 l90 125 73 0 c61 0 73 -3 68 -15 -13 -35 -280 -377 -302 -387
-17 -8 -31 -8 -47 -1 -13 6 -83 94 -157 194 -73 101 -138 190 -143 197 -7 9 7
12 67 12 l76 0 78 -106z m943 89 c-5 -10 -22 -33 -38 -51 l-28 -33 -139 0
c-148 -1 -166 -3 -166 -25 0 -11 27 -14 138 -14 113 0 144 -4 179 -20 109 -49
106 -179 -4 -226 -24 -10 -87 -14 -243 -14 l-211 0 38 50 38 49 161 1 c131 0
164 3 174 15 10 12 10 18 0 30 -10 12 -41 15 -157 15 -158 0 -195 9 -231 55
-30 37 -29 96 1 130 40 46 84 54 300 55 185 0 197 -1 188 -17z m-771 -461 c0
-4 -14 -30 -31 -58 -215 -339 -672 -417 -990 -168 -48 39 -86 79 -133 144 -6
8 19 -15 55 -50 188 -187 472 -232 710 -113 81 40 183 131 229 203 l32 50 64
0 c35 0 64 -4 64 -8z"/>
</g>
</svg>
