<?xml version="1.0" standalone="no"?>
<!DOCTYPE svg PUBLIC "-//W3C//DTD SVG 20010904//EN"
 "http://www.w3.org/TR/2001/REC-SVG-20010904/DTD/svg10.dtd">
<svg version="1.0" xmlns="http://www.w3.org/2000/svg"
 width="200.000000pt" height="117.000000pt" viewBox="0 0 200.000000 117.000000"
 preserveAspectRatio="xMidYMid meet">

<g transform="translate(0.000000,117.000000) scale(0.100000,-0.100000)"
fill="#000000" stroke="none">
<path d="M0 585 l0 -585 1000 0 1000 0 0 585 0 585 -1000 0 -1000 0 0 -585z
m905 410 c76 -20 152 -66 212 -129 l48 -49 -59 47 c-78 62 -125 85 -199 97
-207 34 -399 -92 -453 -296 -49 -181 46 -375 224 -458 60 -28 76 -31 162 -32
83 0 103 4 153 27 32 15 84 49 115 75 l57 47 -55 -57 c-122 -127 -307 -170
-470 -108 -165 63 -280 231 -280 411 0 286 270 496 545 425z m117 -102 c69
-33 136 -91 163 -142 l16 -31 -33 0 c-27 0 -41 10 -81 55 -32 36 -69 64 -112
86 -56 27 -75 32 -144 32 -64 0 -89 -5 -137 -27 -33 -15 -72 -39 -89 -54 -24
-22 -23 -20 5 11 97 107 271 136 412 70z m-5 -318 c40 -55 73 -103 73 -107 0
-5 -56 -8 -125 -8 l-126 0 18 25 c15 20 27 24 66 25 26 0 47 2 47 5 0 13 -45
65 -56 65 -7 0 -32 -27 -55 -60 -39 -56 -45 -60 -80 -60 -22 0 -39 3 -39 8 0
10 137 194 152 204 29 19 54 0 125 -97z m93 40 c25 -36 48 -65 52 -65 3 0 28
29 54 65 44 60 51 65 86 65 21 0 38 -3 38 -7 0 -10 -134 -185 -159 -207 -11
-10 -24 -15 -30 -12 -11 7 -66 78 -135 174 l-38 52 44 0 c41 -1 45 -3 88 -65z
m514 53 c-24 -43 -36 -48 -121 -48 -54 0 -82 -4 -78 -10 3 -5 41 -10 84 -10
64 0 83 -4 105 -21 35 -28 35 -70 0 -98 -24 -19 -40 -21 -147 -21 l-119 0 14
23 c14 19 26 23 104 27 148 8 151 38 4 39 -92 1 -120 16 -120 65 0 56 18 63
173 65 84 1 107 -2 101 -11z m-435 -270 c-42 -80 -128 -147 -223 -174 -126
-35 -272 3 -357 94 -29 31 -32 36 -9 15 19 -18 62 -44 95 -60 133 -61 289 -25
391 90 41 47 55 57 82 57 31 0 32 -1 21 -22z"/>
</g>
</svg>
